<svg width="210" height="40" viewBox="0 0 210 40" fill="none" xmlns="http://www.w3.org/2000/svg">
<g clip-path="url(#clip0_364_57409)">
<path d="M211 0H0V40H211V0Z" fill="white"/>
<path d="M47.9469 26C50.4796 26 52.2718 24.4561 52.5235 22.1997H50.2871C50.0205 23.3576 49.191 24.1147 47.9321 24.1147C46.2584 24.1147 45.2661 22.7045 45.2661 20.7152C45.2661 18.7112 46.2733 17.3158 47.9617 17.3158C49.191 17.3158 50.0205 18.0729 50.2871 19.2308H52.5384C52.2718 16.9744 50.5389 15.4305 48.0802 15.4305C44.9403 15.4305 43 17.5236 43 20.7152C43 23.9069 44.8662 26 47.9469 26Z" fill="#999"/>
<path d="M57.903 18.2808C56.7181 18.2808 56.1256 18.741 55.7109 19.4239L55.5184 18.2808H53.6226V25.911H55.7109V22.1701C55.7109 21.0122 56.1849 20.1809 57.429 20.1809H58.2584V18.2808H57.903Z" fill="#999"/>
<path d="M62.7071 26C64.7362 26 66.0544 24.8124 66.2914 23.3279H64.2327C64.0549 24.0405 63.4625 24.4116 62.6183 24.4116C61.5667 24.4116 60.8705 23.7585 60.8261 22.6749V22.5709H66.3507C66.3951 22.3334 66.4099 22.081 66.4099 21.8583C66.3803 19.6167 64.8399 18.1917 62.559 18.1917C60.204 18.1917 58.6489 19.7356 58.6489 22.1108C58.6489 24.4711 60.1744 26 62.7071 26ZM60.8705 21.2051C60.989 20.2996 61.6703 19.7503 62.5738 19.7503C63.5217 19.7503 64.1586 20.2699 64.3067 21.2051H60.8705Z" fill="#999"/>
<path d="M74.8086 24.1444C74.4828 24.1444 74.3198 24.0702 74.3198 23.6694V20.9676C74.3198 19.1417 73.0905 18.1917 70.9577 18.1917C68.9434 18.1917 67.5808 19.1714 67.4327 20.6559H69.447C69.5359 20.0918 70.0839 19.7206 70.8985 19.7206C71.7723 19.7206 72.2611 20.166 72.2611 20.8489V21.22H70.7504C68.4695 21.22 67.2549 22.1404 67.2549 23.7584C67.2549 25.2132 68.4398 26 70.0839 26C71.2688 26 72.0389 25.5101 72.5721 24.664C72.5573 25.3914 72.898 25.9109 73.9792 25.9109H75.0456V24.1444H74.8086ZM72.2611 22.7638C72.2463 23.803 71.5798 24.4858 70.4838 24.4858C69.7876 24.4858 69.3581 24.1445 69.3581 23.6101C69.3581 22.9718 69.8617 22.6154 70.7356 22.6154H72.2611V22.7638Z" fill="#999"/>
<path d="M76.4015 23.7286C76.4015 25.1834 77.1272 25.9108 78.5787 25.9108H80.282V24.1443H79.2452C78.6972 24.1443 78.4899 23.9216 78.4899 23.3872V20.0471H80.2376V18.2806H78.4899V16.1429H76.4015V18.2806H75.1426V20.0471H76.4015V23.7286Z" fill="#999"/>
<path d="M84.8952 26C86.9243 26 88.2425 24.8124 88.4794 23.3279H86.4207C86.243 24.0405 85.6505 24.4116 84.8063 24.4116C83.7547 24.4116 83.0586 23.7585 83.0141 22.6749V22.5709H88.5387C88.5831 22.3334 88.5979 22.081 88.5979 21.8583C88.5683 19.6167 87.028 18.1917 84.747 18.1917C82.3921 18.1917 80.8369 19.7356 80.8369 22.1108C80.8369 24.4711 82.3625 26 84.8952 26ZM83.0586 21.2051C83.1771 20.2996 83.8584 19.7503 84.7619 19.7503C85.7098 19.7503 86.3467 20.2699 86.4948 21.2051H83.0586Z" fill="#999"/>
<path d="M95.2636 19.2309C94.7749 18.6074 94.0195 18.1917 92.9679 18.1917C90.9388 18.1917 89.4429 19.7207 89.4429 22.0811C89.4429 24.5008 90.9388 26.0001 92.9827 26.0001C94.0788 26.0001 94.8193 25.5102 95.3229 24.8571L95.5302 25.911H97.352V15.5197H95.2636V19.2309ZM93.4419 24.2929C92.3014 24.2929 91.5757 23.4023 91.5757 22.0959C91.5757 20.7896 92.3014 19.8989 93.4419 19.8989C94.5823 19.8989 95.2933 20.8044 95.2933 22.1108C95.2933 23.4023 94.5823 24.2929 93.4419 24.2929Z" fill="#999"/>
<path d="M106.199 26C108.628 26 110.213 24.4562 110.213 22.0958C110.213 19.7503 108.628 18.1917 106.199 18.1917C103.77 18.1917 102.186 19.7503 102.186 22.0958C102.186 24.4413 103.77 26 106.199 26ZM106.199 24.2929C105.029 24.2929 104.318 23.3873 104.318 22.0958C104.318 20.8044 105.029 19.8988 106.199 19.8988C107.369 19.8988 108.095 20.8044 108.095 22.0958C108.095 23.3873 107.369 24.2929 106.199 24.2929Z" fill="#999"/>
<path d="M115.732 18.1917C114.562 18.1917 113.866 18.6371 113.377 19.2309L113.184 18.2808H111.363V25.9109H113.451V22.0068C113.451 20.6857 114.073 19.9137 115.154 19.9137C116.206 19.9137 116.695 20.5966 116.695 21.8881V25.9109H118.783V21.6803C118.783 19.0676 117.376 18.1917 115.732 18.1917Z" fill="#999"/>
<path d="M123.862 21.4279C123.862 24.382 125.328 26.0001 128.112 26.0001C130.912 26.0001 132.378 24.382 132.378 21.4279V15.5197H130.156V21.5467C130.156 23.1944 129.549 24.0851 128.112 24.0851C126.691 24.0851 126.083 23.1944 126.083 21.5467V15.5197H123.862V21.4279Z" fill="#999"/>
<path d="M138.281 18.1917C137.111 18.1917 136.415 18.6371 135.926 19.2309L135.734 18.2808H133.912V25.9109H136V22.0068C136 20.6857 136.622 19.9137 137.704 19.9137C138.755 19.9137 139.244 20.5966 139.244 21.8881V25.9109H141.332V21.6803C141.332 19.0676 139.925 18.1917 138.281 18.1917Z" fill="#999"/>
<path d="M143.7 17.2267C144.337 17.2267 144.84 16.7665 144.84 16.1134C144.84 15.475 144.337 15 143.7 15C143.063 15 142.559 15.475 142.559 16.1134C142.559 16.7665 143.063 17.2267 143.7 17.2267ZM142.648 25.9109H144.751V18.2807H142.648V25.9109Z" fill="#999"/>
<path d="M148.191 25.911H150.783L153.523 18.2808H151.331L149.524 23.7734L147.688 18.2808H145.451L148.191 25.911Z" fill="#999"/>
<path d="M157.62 26C159.649 26 160.967 24.8124 161.204 23.3279H159.145C158.968 24.0405 158.375 24.4116 157.531 24.4116C156.479 24.4116 155.783 23.7585 155.739 22.6749V22.5709H161.263C161.308 22.3334 161.323 22.081 161.323 21.8583C161.293 19.6167 159.753 18.1917 157.472 18.1917C155.117 18.1917 153.562 19.7356 153.562 22.1108C153.562 24.4711 155.087 26 157.62 26ZM155.783 21.2051C155.902 20.2996 156.583 19.7503 157.487 19.7503C158.434 19.7503 159.071 20.2699 159.219 21.2051H155.783Z" fill="#999"/>
<path d="M166.744 18.2808C165.559 18.2808 164.967 18.741 164.552 19.4239L164.36 18.2808H162.464V25.911H164.552V22.1701C164.552 21.0122 165.026 20.1809 166.27 20.1809H167.1V18.2808H166.744Z" fill="#999"/>
<path d="M167.576 23.3725C167.665 25.0054 169.101 26 171.219 26C173.263 26 174.685 25.0351 174.685 23.5209C174.685 21.7989 173.234 21.3981 171.486 21.22C170.39 21.0864 169.738 21.027 169.738 20.448C169.738 19.9582 170.271 19.6613 171.086 19.6613C171.93 19.6613 172.508 20.0324 172.567 20.641H174.567C174.463 19.0823 173.056 18.1768 171.012 18.1768C169.057 18.1619 167.739 19.1565 167.739 20.6707C167.739 22.2443 169.116 22.6451 170.893 22.8529C172.123 23.0162 172.641 23.0607 172.641 23.6842C172.641 24.2186 172.108 24.5007 171.234 24.5007C170.212 24.5007 169.635 24.0405 169.56 23.3725H167.576Z" fill="#999"/>
<path d="M179.547 26C181.576 26 182.895 24.8124 183.132 23.3279H181.073C180.895 24.0405 180.303 24.4116 179.458 24.4116C178.407 24.4116 177.711 23.7585 177.666 22.6749V22.5709H183.191C183.235 22.3334 183.25 22.081 183.25 21.8583C183.22 19.6167 181.68 18.1917 179.399 18.1917C177.044 18.1917 175.489 19.7356 175.489 22.1108C175.489 24.4711 177.015 26 179.547 26ZM177.711 21.2051C177.829 20.2996 178.51 19.7503 179.414 19.7503C180.362 19.7503 180.999 20.2699 181.147 21.2051H177.711Z" fill="#999"/>
<path fill-rule="evenodd" clip-rule="evenodd" d="M193.623 28L192 26.6503L196.717 21L192 15.3497L193.623 14L199.467 21L193.623 28Z" fill="#999"/>
<g clip-path="url(#clip1_364_57409)">
<path d="M26.1727 11.4243H16.8277C11.8458 11.4243 7.79248 15.4759 7.79248 20.4556C7.79248 25.4354 11.8458 29.4869 16.8277 29.4869H26.1727C31.1546 29.4869 35.2079 25.4354 35.2079 20.4556C35.2079 15.4759 31.1546 11.4243 26.1727 11.4243ZM33.806 19.7704H30.4091C30.1832 16.8087 28.5057 14.2465 26.0879 12.7939H26.1718C30.1669 12.7939 33.4577 15.8651 33.8051 19.7704H33.806ZM21.4997 28.0172C20.8262 28.0172 19.9883 26.9034 19.45 24.934H23.5486C23.0112 26.9034 22.1724 28.0172 21.4989 28.0172H21.4997ZM19.1556 23.5798C19.0315 22.845 18.9485 22.028 18.9202 21.14H24.0801C24.051 22.028 23.9689 22.8441 23.8448 23.5798H19.1556ZM18.9202 19.7704C18.9493 18.8824 19.0315 18.0654 19.1556 17.3305H23.8448C23.9689 18.0654 24.0519 18.8824 24.0801 19.7704H18.9202ZM19.4508 15.9763C19.9883 14.007 20.827 12.894 21.5006 12.894C22.1742 12.894 23.012 14.0079 23.5504 15.9763H19.4517H19.4508ZM23.9363 13.2961C25.4118 13.7991 26.6828 14.7461 27.5908 15.9763H24.9505C24.7006 14.9549 24.3617 14.0327 23.9363 13.2961ZM18.0498 15.9763H15.4095C16.3176 14.7461 17.5885 13.7991 19.064 13.2961C18.6386 14.0327 18.2989 14.9549 18.0498 15.9763ZM14.6127 17.3305H17.7802C17.6553 18.1219 17.5774 18.9465 17.55 19.7704H13.9674C14.0453 18.9072 14.2687 18.0859 14.6127 17.3305ZM17.55 21.14C17.5774 21.9638 17.6544 22.7876 17.7802 23.5798H14.6127C14.2687 22.8244 14.0453 22.0032 13.9674 21.14H17.55ZM18.0507 24.934C18.3006 25.9555 18.6395 26.8777 19.0649 27.6143C17.5894 27.1112 16.3184 26.1642 15.4104 24.934H18.0507ZM24.9522 24.934H27.5925C26.6845 26.1642 25.4135 27.1112 23.9381 27.6143C24.3634 26.8777 24.7032 25.9555 24.9522 24.934ZM28.3902 23.5798H25.2227C25.3476 22.7885 25.4255 21.9638 25.4529 21.14H29.0355C28.9576 22.0032 28.7342 22.8244 28.3902 23.5798ZM25.4529 19.7704C25.4255 18.9465 25.3485 18.1227 25.2227 17.3305H28.3902C28.7342 18.0859 28.9576 18.9072 29.0355 19.7704H25.4529ZM16.8277 12.7948H16.9115C14.4938 14.2465 12.8163 16.8087 12.5904 19.7712H9.19436C9.54183 15.866 12.8326 12.7948 16.8277 12.7948ZM9.19436 21.1409H12.5912C12.8172 24.1025 14.4946 26.6647 16.9124 28.1173H16.8285C12.8334 28.1173 9.54269 25.0461 9.19522 21.1409H9.19436ZM26.1727 28.1173H26.0888C28.5066 26.6655 30.184 24.1034 30.41 21.1409H33.8068C33.4594 25.0453 30.1686 28.1173 26.1735 28.1173H26.1727Z" fill="#999"/>
</g>
</g>
<defs>
<clipPath id="clip0_364_57409">
<rect width="210" height="40" fill="white"/>
</clipPath>
<clipPath id="clip1_364_57409">
<rect width="27.4154" height="18.0626" fill="white" transform="translate(7.79248 11.4243)"/>
</clipPath>
</defs>
</svg>
