<?xml version="1.0" encoding="utf-8"?>
<svg xmlns="http://www.w3.org/2000/svg" xmlns:xlink="http://www.w3.org/1999/xlink" width="500" zoomAndPan="magnify" viewBox="0 0 375 374.999991" height="500" preserveAspectRatio="xMidYMid meet" version="1.0">
  <defs>
    <clipPath id="209b0c3472">
      <path clip-rule="nonzero" d="M 66 125.644531 L 309.621094 125.644531 L 309.621094 249.394531 L 66 249.394531 Z M 66 125.644531"/>
    </clipPath>
  </defs>
  <g clip-path="url(#209b0c3472)">
    <path fill="#4f4f4f" fill-opacity="1" fill-rule="nonzero" d="M 306.746094 194.457031 C 303.140625 191.683594 299.488281 189.101562 295.789062 186.617188 L 304.75 181.40625 C 308.402344 179.261719 309.667969 174.539062 307.523438 170.886719 C 305.382812 167.234375 300.660156 165.96875 297.003906 168.109375 L 281.082031 177.363281 C 277.039062 175.027344 272.996094 172.882812 268.953125 170.886719 L 279.035156 158.855469 C 281.761719 155.59375 281.324219 150.773438 278.0625 147.996094 C 274.796875 145.269531 269.976562 145.707031 267.199219 148.921875 L 254.246094 164.359375 C 247.425781 161.632812 240.511719 159.394531 233.59375 157.542969 L 238.613281 143.808594 C 240.074219 139.816406 238.027344 135.382812 234.035156 133.96875 C 230.039062 132.507812 225.609375 134.554688 224.195312 138.546875 L 218.496094 154.230469 C 211.339844 153.011719 204.179688 152.234375 196.921875 151.941406 L 196.921875 133.335938 C 196.921875 129.101562 193.464844 125.644531 189.226562 125.644531 C 184.992188 125.644531 181.53125 129.101562 181.53125 133.335938 L 181.53125 151.992188 C 174.082031 152.332031 166.875 153.160156 160.007812 154.328125 L 154.261719 138.5 C 152.800781 134.507812 148.367188 132.460938 144.421875 133.921875 C 140.429688 135.382812 138.382812 139.765625 139.84375 143.757812 L 144.859375 157.589844 C 137.507812 159.492188 130.542969 161.78125 124.113281 164.261719 L 111.207031 148.875 C 108.480469 145.609375 103.609375 145.171875 100.347656 147.949219 C 97.082031 150.675781 96.644531 155.546875 99.421875 158.808594 L 109.355469 170.691406 C 104.144531 173.175781 99.421875 175.757812 95.234375 178.191406 L 77.847656 168.0625 C 74.195312 165.917969 69.46875 167.183594 67.328125 170.839844 C 65.183594 174.492188 66.449219 179.214844 70.101562 181.359375 L 80.671875 187.542969 C 75.023438 191.535156 71.757812 194.359375 71.273438 194.800781 C 69.566406 196.308594 68.59375 198.550781 68.691406 200.839844 C 68.789062 203.128906 69.859375 205.269531 71.710938 206.683594 C 108.722656 234.980469 148.074219 249.347656 188.644531 249.347656 C 257.65625 249.347656 305.140625 208.09375 307.136719 206.34375 C 308.839844 204.832031 309.8125 202.589844 309.71875 200.304688 C 309.667969 198.015625 308.597656 195.871094 306.746094 194.457031 Z M 189.226562 231.8125 C 172.328125 231.8125 158.59375 218.078125 158.59375 201.179688 C 158.59375 184.28125 172.328125 170.546875 189.226562 170.546875 C 206.128906 170.546875 219.863281 184.28125 219.863281 201.179688 C 219.863281 218.078125 206.128906 231.8125 189.226562 231.8125 Z M 154.308594 171.277344 C 147.394531 179.3125 143.203125 189.78125 143.203125 201.179688 C 143.203125 211.992188 147.003906 221.925781 153.238281 229.816406 C 131.371094 224.703125 109.941406 214.914062 89.195312 200.398438 C 100.542969 192.363281 123.722656 178.191406 154.308594 171.277344 Z M 225.414062 229.574219 C 231.550781 221.730469 235.300781 211.894531 235.300781 201.179688 C 235.300781 189.636719 231.015625 179.117188 223.953125 171.03125 C 246.257812 176.050781 268.078125 185.9375 289.261719 200.742188 C 278.011719 208.628906 255.269531 222.511719 225.414062 229.574219 Z M 225.414062 229.574219"/>
  </g>
</svg>