<?xml version="1.0" encoding="utf-8"?>
<svg xmlns="http://www.w3.org/2000/svg" xmlns:xlink="http://www.w3.org/1999/xlink" width="500" zoomAndPan="magnify" viewBox="0 0 375 374.999991" height="500" preserveAspectRatio="xMidYMid meet" version="1.0">
  <rect x="-37.5" width="450" fill="#ffffff" y="-37.499999" height="449.999989" fill-opacity="1"/>
  <rect x="-37.5" width="450" fill="#f8f4ef" y="-37.499999" height="449.999989" fill-opacity="1"/>
  <path stroke-linecap="round" transform="matrix(7.5, 0, 0, 7.5, 97.384839, 97.384834)" fill="none" stroke-linejoin="round" stroke="#4f4f4f" stroke-width="2" stroke-opacity="1" stroke-miterlimit="4" d="M 17.000252 11.000252 L 18.000252 11.000252 C 18.098169 11.000252 18.196085 11.004939 18.294002 11.014314 C 18.391919 11.02421 18.488794 11.038273 18.585148 11.057544 C 18.681502 11.076814 18.776814 11.100773 18.871085 11.129419 C 18.964835 11.157544 19.057023 11.190877 19.148169 11.228377 C 19.238794 11.265877 19.327335 11.308064 19.414314 11.354419 C 19.500773 11.400773 19.585148 11.450773 19.666919 11.50546 C 19.748169 11.560148 19.827335 11.618481 19.903377 11.680981 C 19.978898 11.743481 20.051814 11.809106 20.121085 11.878898 C 20.190877 11.948169 20.256502 12.021085 20.319002 12.096606 C 20.381502 12.172648 20.439835 12.251815 20.494523 12.333065 C 20.54921 12.414835 20.59921 12.49921 20.645565 12.585669 C 20.691919 12.672648 20.734106 12.76119 20.771606 12.851815 C 20.809106 12.94296 20.84244 13.035148 20.870565 13.128898 C 20.89921 13.223169 20.923169 13.318481 20.94244 13.414835 C 20.96171 13.51119 20.975773 13.608065 20.985669 13.705981 C 20.995044 13.803898 21.000252 13.901815 21.000252 14.000252 C 21.000252 14.098169 20.995044 14.196086 20.985669 14.294002 C 20.975773 14.391919 20.96171 14.488794 20.94244 14.585148 C 20.923169 14.681502 20.89921 14.776815 20.870565 14.871086 C 20.84244 14.964836 20.809106 15.057023 20.771606 15.148169 C 20.734106 15.238794 20.691919 15.327336 20.645565 15.414315 C 20.59921 15.500773 20.54921 15.585148 20.494523 15.666919 C 20.439835 15.748169 20.381502 15.827336 20.319002 15.903377 C 20.256502 15.978898 20.190877 16.051815 20.121085 16.121086 C 20.051814 16.190877 19.978898 16.256502 19.903377 16.319002 C 19.827335 16.381502 19.748169 16.439836 19.666919 16.494523 C 19.585148 16.549211 19.500773 16.599211 19.414314 16.645565 C 19.327335 16.691919 19.238794 16.734107 19.148169 16.771607 C 19.057023 16.809107 18.964835 16.84244 18.871085 16.870565 C 18.776814 16.899211 18.681502 16.923169 18.585148 16.94244 C 18.488794 16.961711 18.391919 16.975773 18.294002 16.985669 C 18.196085 16.995044 18.098169 17.000252 18.000252 17.000252 L 17.000252 17.000252"/>
  <path stroke-linecap="round" transform="matrix(7.5, 0, 0, 7.5, 97.384839, 97.384834)" fill="none" stroke-linejoin="round" stroke="#4f4f4f" stroke-width="2" stroke-opacity="1" stroke-miterlimit="4" d="M 9.000251 12.000252 L 9.000251 18.000252"/>
  <path stroke-linecap="round" transform="matrix(7.5, 0, 0, 7.5, 97.384839, 97.384834)" fill="none" stroke-linejoin="round" stroke="#4f4f4f" stroke-width="2" stroke-opacity="1" stroke-miterlimit="4" d="M 13.000251 12.000252 L 13.000251 18.000252"/>
  <path stroke-linecap="round" transform="matrix(7.5, 0, 0, 7.5, 97.384839, 97.384834)" fill="none" stroke-linejoin="round" stroke="#4f4f4f" stroke-width="2" stroke-opacity="1" stroke-miterlimit="4" d="M 14.000252 7.500252 C 13.000251 7.500252 12.560147 8.000252 11.000251 8.000252 C 9.439835 8.000252 9.000251 7.500252 8.000251 7.500252 C 7.000251 7.500252 6.279939 8.000252 5.500251 8.000252 C 5.417959 8.000252 5.336188 7.996085 5.254938 7.987752 C 5.173688 7.979939 5.092438 7.96796 5.01223 7.951814 C 4.932022 7.936189 4.852855 7.915877 4.774209 7.892439 C 4.696084 7.868481 4.619001 7.840877 4.54348 7.809627 C 4.467438 7.778377 4.39348 7.743481 4.321605 7.704939 C 4.249209 7.666398 4.178897 7.62421 4.111188 7.578898 C 4.042959 7.533064 3.977334 7.484627 3.913793 7.432543 C 3.850772 7.38046 3.790355 7.325773 3.732022 7.26796 C 3.674209 7.209627 3.619522 7.14921 3.567438 7.086189 C 3.515355 7.022648 3.466918 6.957023 3.421084 6.888793 C 3.375772 6.821085 3.333584 6.750773 3.295043 6.678377 C 3.256501 6.606502 3.221605 6.532543 3.190355 6.456502 C 3.159105 6.380981 3.131501 6.303897 3.107543 6.225772 C 3.084105 6.147127 3.063793 6.06796 3.048168 5.987752 C 3.032022 5.907543 3.020043 5.826293 3.01223 5.745043 C 3.003897 5.663793 3.000251 5.582022 3.000251 5.500252 C 3.000251 5.41796 3.003897 5.336189 3.01223 5.254939 C 3.020043 5.173689 3.032022 5.092439 3.048168 5.012231 C 3.063793 4.932022 3.084105 4.852856 3.107543 4.77421 C 3.131501 4.696085 3.159105 4.619002 3.190355 4.543481 C 3.221605 4.467439 3.256501 4.393481 3.295043 4.321606 C 3.333584 4.24921 3.375772 4.178897 3.421084 4.111189 C 3.466918 4.04296 3.515355 3.977335 3.567438 3.913793 C 3.619522 3.850772 3.674209 3.790356 3.732022 3.732022 C 3.790355 3.67421 3.850772 3.619522 3.913793 3.567439 C 3.977334 3.515356 4.042959 3.466918 4.111188 3.421085 C 4.178897 3.375772 4.249209 3.333585 4.321605 3.295043 C 4.39348 3.256501 4.467438 3.221606 4.54348 3.190356 C 4.619001 3.159106 4.696084 3.131501 4.774209 3.107543 C 4.852855 3.084106 4.932022 3.063793 5.01223 3.048168 C 5.092438 3.032022 5.173688 3.020043 5.254938 3.012231 C 5.336188 3.003897 5.417959 3.000251 5.500251 3.000251 C 6.279939 3.000251 7.070043 3.500251 8.000251 3.500251 C 8.929939 3.500251 9.439835 2.000251 11.000251 2.000251 C 12.560147 2.000251 13.000251 3.500251 14.000252 3.500251 C 15.000252 3.500251 15.720043 3.000251 16.500252 3.000251 C 16.582023 3.000251 16.663793 3.003897 16.745043 3.012231 C 16.826293 3.020043 16.907543 3.032022 16.987752 3.048168 C 17.06796 3.063793 17.147127 3.084106 17.225773 3.107543 C 17.303898 3.131501 17.380981 3.159106 17.456502 3.190356 C 17.532543 3.221606 17.606502 3.256501 17.678377 3.295043 C 17.750773 3.333585 17.821085 3.375772 17.888793 3.421085 C 17.957023 3.466918 18.022648 3.515356 18.086189 3.567439 C 18.14921 3.619522 18.209627 3.67421 18.26796 3.732022 C 18.325773 3.790356 18.38046 3.850772 18.432544 3.913793 C 18.484627 3.977335 18.533064 4.04296 18.578898 4.111189 C 18.62421 4.178897 18.666398 4.24921 18.704939 4.321606 C 18.743481 4.393481 18.778377 4.467439 18.809627 4.543481 C 18.840877 4.619002 18.868481 4.696085 18.892439 4.77421 C 18.915877 4.852856 18.936189 4.932022 18.951814 5.012231 C 18.96796 5.092439 18.979939 5.173689 18.987752 5.254939 C 18.996085 5.336189 19.000252 5.41796 19.000252 5.500252 C 19.000252 5.582022 18.996085 5.663793 18.987752 5.745043 C 18.979939 5.826293 18.96796 5.907543 18.951814 5.987752 C 18.936189 6.06796 18.915877 6.147127 18.892439 6.225772 C 18.868481 6.303897 18.840877 6.380981 18.809627 6.456502 C 18.778377 6.532543 18.743481 6.606502 18.704939 6.678377 C 18.666398 6.750773 18.62421 6.821085 18.578898 6.888793 C 18.533064 6.957023 18.484627 7.022648 18.432544 7.086189 C 18.38046 7.14921 18.325773 7.209627 18.26796 7.26796 C 18.209627 7.325773 18.14921 7.38046 18.086189 7.432543 C 18.022648 7.484627 17.957023 7.533064 17.888793 7.578898 C 17.821085 7.62421 17.750773 7.666398 17.678377 7.704939 C 17.606502 7.743481 17.532543 7.778377 17.456502 7.809627 C 17.380981 7.840877 17.303898 7.868481 17.225773 7.892439 C 17.147127 7.915877 17.06796 7.936189 16.987752 7.951814 C 16.907543 7.96796 16.826293 7.979939 16.745043 7.987752 C 16.663793 7.996085 16.582023 8.000252 16.500252 8.000252 C 15.720043 8.000252 15.000252 7.500252 14.000252 7.500252 Z M 14.000252 7.500252"/>
  <path stroke-linecap="round" transform="matrix(7.5, 0, 0, 7.5, 97.384839, 97.384834)" fill="none" stroke-linejoin="round" stroke="#4f4f4f" stroke-width="2" stroke-opacity="1" stroke-miterlimit="4" d="M 5.000251 8.000252 L 5.000251 20.000253 C 5.000251 20.131503 5.012751 20.26119 5.038272 20.390357 C 5.063793 20.519003 5.101813 20.644003 5.152334 20.765357 C 5.202334 20.886711 5.264313 21.001815 5.33723 21.11119 C 5.410147 21.220565 5.492959 21.321607 5.585668 21.414315 C 5.678897 21.507023 5.779418 21.589836 5.888793 21.662753 C 5.998168 21.735669 6.113272 21.797649 6.234626 21.847649 C 6.35598 21.898169 6.48098 21.93619 6.609626 21.961711 C 6.738793 21.987232 6.86848 22.000253 7.000251 22.000253 L 15.000252 22.000253 C 15.131502 22.000253 15.261189 21.987232 15.390356 21.961711 C 15.519002 21.93619 15.644002 21.898169 15.765356 21.847649 C 15.88671 21.797649 16.001814 21.735669 16.111189 21.662753 C 16.220564 21.589836 16.321606 21.507023 16.414314 21.414315 C 16.507023 21.321607 16.589835 21.220565 16.662752 21.11119 C 16.735668 21.001815 16.797648 20.886711 16.847648 20.765357 C 16.898168 20.644003 16.936189 20.519003 16.96171 20.390357 C 16.987231 20.26119 17.000252 20.131503 17.000252 20.000253 L 17.000252 8.000252"/>
</svg>