<?xml version="1.0" encoding="utf-8"?>
<svg xmlns="http://www.w3.org/2000/svg" xmlns:xlink="http://www.w3.org/1999/xlink" width="500" zoomAndPan="magnify" viewBox="0 0 375 374.999991" height="500" preserveAspectRatio="xMidYMid meet" version="1.0">
  <rect x="-37.5" width="450" fill="#ffffff" y="-37.499999" height="449.999989" fill-opacity="1"/>
  <rect x="-37.5" width="450" fill="#f8f4ef" y="-37.499999" height="449.999989" fill-opacity="1"/>
  <path stroke-linecap="round" transform="matrix(7.499999, 0, 0, 7.499999, 97.513892, 97.513887)" fill="none" stroke-linejoin="round" stroke="#4f4f4f" stroke-width="2" stroke-opacity="1" stroke-miterlimit="4" d="M 7.000232 11.000233 L 9.000232 9.000233 L 7.000232 7.000233"/>
  <path stroke-linecap="round" transform="matrix(7.499999, 0, 0, 7.499999, 97.513892, 97.513887)" fill="none" stroke-linejoin="round" stroke="#4f4f4f" stroke-width="2" stroke-opacity="1" stroke-miterlimit="4" d="M 11.000233 13.000233 L 15.000233 13.000233"/>
  <path stroke-linecap="round" transform="matrix(7.499999, 0, 0, 7.499999, 97.513892, 97.513887)" fill="none" stroke-linejoin="round" stroke="#4f4f4f" stroke-width="2" stroke-opacity="1" stroke-miterlimit="4" d="M 5.000232 3.000232 L 19.000234 3.000232 C 19.131484 3.000232 19.261171 3.012732 19.390338 3.038253 C 19.518984 3.064295 19.643984 3.101795 19.765338 3.152315 C 19.886692 3.202315 20.001796 3.264295 20.111171 3.337211 C 20.220546 3.410128 20.321588 3.49294 20.414296 3.585649 C 20.507005 3.678878 20.589817 3.77992 20.662734 3.888774 C 20.73565 3.998149 20.79763 4.113253 20.84763 4.234607 C 20.89815 4.355961 20.936171 4.480961 20.961692 4.609607 C 20.987213 4.738774 21.000234 4.868462 21.000234 5.000232 L 21.000234 19.000234 C 21.000234 19.131484 20.987213 19.261172 20.961692 19.390338 C 20.936171 19.518984 20.89815 19.643984 20.84763 19.765338 C 20.79763 19.886693 20.73565 20.001797 20.662734 20.111172 C 20.589817 20.220547 20.507005 20.321589 20.414296 20.414297 C 20.321588 20.507005 20.220546 20.589818 20.111171 20.662734 C 20.001796 20.735651 19.886692 20.79763 19.765338 20.84763 C 19.643984 20.898151 19.518984 20.936172 19.390338 20.961693 C 19.261171 20.987214 19.131484 21.000234 19.000234 21.000234 L 5.000232 21.000234 C 4.868461 21.000234 4.738773 20.987214 4.609607 20.961693 C 4.480961 20.936172 4.355961 20.898151 4.234607 20.84763 C 4.113252 20.79763 3.998148 20.735651 3.888773 20.662734 C 3.779919 20.589818 3.678877 20.507005 3.585648 20.414297 C 3.49294 20.321589 3.410127 20.220547 3.337211 20.111172 C 3.264294 20.001797 3.202315 19.886693 3.152315 19.765338 C 3.101794 19.643984 3.064294 19.518984 3.038252 19.390338 C 3.012731 19.261172 3.000231 19.131484 3.000231 19.000234 L 3.000231 5.000232 C 3.000231 4.868462 3.012731 4.738774 3.038252 4.609607 C 3.064294 4.480961 3.101794 4.355961 3.152315 4.234607 C 3.202315 4.113253 3.264294 3.998149 3.337211 3.888774 C 3.410127 3.77992 3.49294 3.678878 3.585648 3.585649 C 3.678877 3.49294 3.779919 3.410128 3.888773 3.337211 C 3.998148 3.264295 4.113252 3.202315 4.234607 3.152315 C 4.355961 3.101795 4.480961 3.064295 4.609607 3.038253 C 4.738773 3.012732 4.868461 3.000232 5.000232 3.000232 Z M 5.000232 3.000232"/>
</svg>