<?xml version="1.0" encoding="utf-8"?>
<svg xmlns="http://www.w3.org/2000/svg" xmlns:xlink="http://www.w3.org/1999/xlink" width="96" zoomAndPan="magnify" viewBox="0 0 72 72" height="96" preserveAspectRatio="xMidYMid meet" version="1.0">
  <defs>
    <g/>
  </defs>
  <g fill="#545454" fill-opacity="1">
    <g transform="translate(10.416488, 59.535011)">
      <g>
        <path d="M 6.515625 -42.625 L 6.515625 -48.640625 L 30.75 -48.640625 C 35.882812 -48.640625 39.898438 -47.300781 42.796875 -44.625 C 45.691406 -41.957031 47.140625 -37.835938 47.140625 -32.265625 L 47.140625 -6.515625 C 47.140625 -4.617188 46.539062 -3.054688 45.34375 -1.828125 C 44.144531 -0.609375 42.597656 0 40.703125 0 L 34.015625 0 C 31.953125 0 30.445312 -0.539062 29.5 -1.625 C 28.550781 -2.71875 28.078125 -4.015625 28.078125 -5.515625 L 27.078125 -5.515625 C 26.410156 -3.398438 25.28125 -1.753906 23.6875 -0.578125 C 22.101562 0.585938 20.003906 1.171875 17.390625 1.171875 C 15.328125 1.171875 13.429688 0.753906 11.703125 -0.078125 C 9.972656 -0.921875 8.476562 -2.117188 7.21875 -3.671875 C 5.96875 -5.234375 4.976562 -7.140625 4.25 -9.390625 C 3.53125 -11.648438 3.171875 -14.175781 3.171875 -16.96875 L 3.171875 -18.46875 C 3.171875 -21.257812 3.53125 -23.765625 4.25 -25.984375 C 4.976562 -28.210938 5.96875 -30.117188 7.21875 -31.703125 C 8.476562 -33.296875 9.972656 -34.507812 11.703125 -35.34375 C 13.429688 -36.1875 15.269531 -36.609375 17.21875 -36.609375 C 19.78125 -36.609375 21.742188 -36.117188 23.109375 -35.140625 C 24.472656 -34.171875 25.628906 -32.765625 26.578125 -30.921875 L 27.578125 -30.921875 L 27.578125 -35.4375 L 34.09375 -35.4375 L 34.09375 -8.53125 C 34.09375 -6.851562 34.847656 -6.015625 36.359375 -6.015625 L 38.359375 -6.015625 C 39.867188 -6.015625 40.625 -6.851562 40.625 -8.53125 L 40.625 -31.59375 C 40.625 -35.21875 39.769531 -37.960938 38.0625 -39.828125 C 36.363281 -41.691406 33.707031 -42.625 30.09375 -42.625 Z M 18.640625 -5.015625 C 20.304688 -5.015625 21.710938 -5.320312 22.859375 -5.9375 C 24.003906 -6.550781 24.921875 -7.398438 25.609375 -8.484375 C 26.304688 -9.566406 26.804688 -10.832031 27.109375 -12.28125 C 27.421875 -13.726562 27.578125 -15.289062 27.578125 -16.96875 L 27.578125 -18.46875 C 27.578125 -20.03125 27.421875 -21.535156 27.109375 -22.984375 C 26.804688 -24.429688 26.304688 -25.710938 25.609375 -26.828125 C 24.921875 -27.941406 24.003906 -28.816406 22.859375 -29.453125 C 21.710938 -30.097656 20.304688 -30.421875 18.640625 -30.421875 C 17.242188 -30.421875 15.988281 -30.113281 14.875 -29.5 C 13.757812 -28.882812 12.828125 -28.035156 12.078125 -26.953125 C 11.328125 -25.867188 10.738281 -24.601562 10.3125 -23.15625 C 9.894531 -21.707031 9.6875 -20.144531 9.6875 -18.46875 L 9.6875 -16.96875 C 9.6875 -13.457031 10.46875 -10.585938 12.03125 -8.359375 C 13.59375 -6.128906 15.796875 -5.015625 18.640625 -5.015625 Z M 18.640625 -5.015625"/>
      </g>
    </g>
  </g>
</svg>