<?xml version="1.0" encoding="utf-8"?>
<svg xmlns="http://www.w3.org/2000/svg" xmlns:xlink="http://www.w3.org/1999/xlink" width="500" zoomAndPan="magnify" viewBox="0 0 375 374.999991" height="500" preserveAspectRatio="xMidYMid meet" version="1.0">
  <rect x="-37.5" width="450" fill="#ffffff" y="-37.499999" height="449.999989" fill-opacity="1"/>
  <rect x="-37.5" width="450" fill="#f8f4ef" y="-37.499999" height="449.999989" fill-opacity="1"/>
  <path fill="#000000" fill-opacity="1" fill-rule="nonzero" d="M 281.265625 255.6875 L 93.707031 255.6875 C 92.683594 255.6875 92 255.007812 92 253.984375 L 92 120.988281 C 92 119.964844 92.683594 119.28125 93.707031 119.28125 L 281.265625 119.28125 C 282.289062 119.28125 282.96875 119.964844 282.96875 120.988281 L 282.96875 253.984375 C 282.96875 255.007812 282.289062 255.6875 281.265625 255.6875 Z M 95.410156 252.277344 L 279.558594 252.277344 L 279.558594 122.691406 L 95.410156 122.691406 Z M 95.410156 252.277344"/>
  <path fill="#000000" fill-opacity="1" fill-rule="nonzero" d="M 216.472656 153.382812 L 158.5 153.382812 C 157.476562 153.382812 156.792969 152.703125 156.792969 151.679688 L 156.792969 141.449219 C 156.792969 140.425781 157.476562 139.742188 158.5 139.742188 L 216.472656 139.742188 C 217.496094 139.742188 218.175781 140.425781 218.175781 141.449219 L 218.175781 151.679688 C 218.175781 152.703125 217.496094 153.382812 216.472656 153.382812 Z M 160.203125 149.972656 L 214.765625 149.972656 L 214.765625 143.152344 L 160.203125 143.152344 Z M 216.472656 170.433594 L 158.5 170.433594 C 157.476562 170.433594 156.792969 169.753906 156.792969 168.730469 C 156.792969 167.707031 157.476562 167.023438 158.5 167.023438 L 216.472656 167.023438 C 217.496094 167.023438 218.175781 167.707031 218.175781 168.730469 C 218.175781 169.753906 217.496094 170.433594 216.472656 170.433594 Z M 250.574219 180.664062 L 124.398438 180.664062 C 123.375 180.664062 122.691406 179.984375 122.691406 178.960938 C 122.691406 177.9375 123.375 177.253906 124.398438 177.253906 L 250.574219 177.253906 C 251.597656 177.253906 252.277344 177.9375 252.277344 178.960938 C 252.277344 179.984375 251.597656 180.664062 250.574219 180.664062 Z M 250.574219 190.894531 L 124.398438 190.894531 C 123.375 190.894531 122.691406 190.214844 122.691406 189.191406 C 122.691406 188.167969 123.375 187.484375 124.398438 187.484375 L 250.574219 187.484375 C 251.597656 187.484375 252.277344 188.167969 252.277344 189.191406 C 252.277344 190.214844 251.597656 190.894531 250.574219 190.894531 Z M 250.574219 201.125 L 124.398438 201.125 C 123.375 201.125 122.691406 200.445312 122.691406 199.421875 C 122.691406 198.398438 123.375 197.714844 124.398438 197.714844 L 250.574219 197.714844 C 251.597656 197.714844 252.277344 198.398438 252.277344 199.421875 C 252.277344 200.445312 251.597656 201.125 250.574219 201.125 Z M 188.167969 216.8125 L 189.191406 219.199219 C 189.191406 219.539062 189.53125 219.539062 189.871094 219.539062 L 192.257812 219.882812 C 192.941406 219.882812 192.941406 220.5625 192.601562 221.246094 L 190.894531 222.949219 C 190.894531 222.949219 190.554688 223.292969 190.554688 223.632812 L 190.894531 226.019531 C 190.894531 226.703125 190.214844 227.042969 189.871094 226.703125 L 187.824219 225.679688 L 187.144531 225.679688 L 185.097656 226.703125 C 184.414062 227.042969 184.074219 226.703125 184.074219 226.019531 L 184.414062 223.632812 C 184.414062 223.292969 184.414062 223.292969 184.074219 222.949219 L 182.371094 221.246094 C 182.027344 220.90625 182.027344 220.222656 182.710938 219.882812 L 185.097656 219.539062 C 185.4375 219.539062 185.4375 219.199219 185.78125 219.199219 L 186.804688 216.8125 C 187.144531 216.472656 187.824219 216.472656 188.167969 216.8125 Z M 250.574219 235.226562 L 213.0625 235.226562 C 212.039062 235.226562 211.355469 234.546875 211.355469 233.523438 C 211.355469 232.5 212.039062 231.816406 213.0625 231.816406 L 250.574219 231.816406 C 251.597656 231.816406 252.277344 232.5 252.277344 233.523438 C 252.277344 234.546875 251.597656 235.226562 250.574219 235.226562 Z M 249.550781 228.40625 C 248.867188 228.40625 248.527344 228.066406 248.1875 227.382812 C 246.480469 224.316406 241.707031 223.972656 239.660156 227.042969 C 239.320312 227.382812 238.976562 227.726562 238.636719 227.726562 C 238.296875 227.726562 237.613281 227.726562 237.273438 227.382812 C 235.910156 226.359375 234.203125 226.359375 232.839844 227.726562 C 232.5 228.066406 231.816406 228.40625 231.136719 228.066406 C 230.453125 227.726562 230.113281 227.382812 230.113281 226.703125 C 230.113281 225.679688 229.429688 224.996094 228.40625 224.996094 C 227.382812 224.996094 226.703125 225.679688 226.703125 226.703125 C 226.703125 227.382812 226.359375 228.066406 225.679688 228.066406 C 224.996094 228.40625 224.316406 228.066406 223.972656 227.726562 C 222.949219 226.703125 220.90625 226.359375 219.539062 227.382812 C 219.199219 227.726562 218.859375 227.726562 218.175781 227.726562 C 217.835938 227.726562 217.152344 227.382812 217.152344 227.042969 C 216.128906 225.679688 214.765625 224.996094 213.0625 224.996094 C 212.039062 224.996094 211.355469 224.316406 211.355469 223.292969 C 211.355469 222.269531 212.039062 221.585938 213.0625 221.585938 C 215.105469 221.585938 217.152344 222.269531 218.859375 223.972656 C 220.5625 223.292969 222.609375 223.292969 224.316406 223.972656 C 224.996094 222.609375 226.703125 221.585938 228.40625 221.585938 C 230.113281 221.585938 231.816406 222.609375 232.5 223.972656 C 234.203125 223.292969 236.25 223.292969 237.957031 223.972656 C 239.660156 222.609375 241.707031 221.585938 243.753906 221.585938 C 246.820312 221.585938 249.550781 223.292969 251.253906 226.019531 C 251.597656 226.703125 251.597656 227.726562 250.574219 228.40625 Z M 161.910156 235.226562 L 124.398438 235.226562 C 123.375 235.226562 122.691406 234.546875 122.691406 233.523438 C 122.691406 232.5 123.375 231.816406 124.398438 231.816406 L 161.910156 231.816406 C 162.933594 231.816406 163.613281 232.5 163.613281 233.523438 C 163.613281 234.546875 162.933594 235.226562 161.910156 235.226562 Z M 125.421875 228.40625 C 125.078125 228.40625 124.738281 228.40625 124.398438 228.066406 C 123.714844 227.726562 123.375 226.703125 123.714844 225.679688 C 125.078125 222.949219 128.148438 221.246094 131.21875 221.246094 C 133.261719 221.246094 135.308594 221.925781 137.015625 223.632812 C 138.71875 222.949219 140.765625 222.949219 142.472656 223.632812 C 143.152344 222.609375 144.859375 221.585938 146.5625 221.585938 C 148.269531 221.585938 149.972656 222.609375 150.65625 223.972656 C 152.359375 223.292969 154.40625 223.292969 156.113281 223.972656 C 157.816406 222.609375 159.863281 221.585938 161.910156 221.585938 C 162.933594 221.585938 163.613281 222.269531 163.613281 223.292969 C 163.613281 224.316406 162.933594 224.996094 161.910156 224.996094 C 160.203125 224.996094 158.839844 225.679688 157.816406 227.042969 C 157.476562 227.382812 157.132812 227.726562 156.792969 227.726562 C 156.453125 227.726562 155.769531 227.726562 155.429688 227.382812 C 154.066406 226.359375 152.359375 226.359375 150.996094 227.726562 C 150.65625 228.066406 149.972656 228.40625 149.292969 228.066406 C 148.609375 227.726562 148.269531 227.382812 148.269531 226.703125 C 148.269531 225.679688 147.585938 224.996094 146.5625 224.996094 C 145.539062 224.996094 144.859375 225.679688 144.859375 226.703125 C 144.859375 227.382812 144.515625 228.066406 143.835938 228.066406 C 143.152344 228.40625 142.472656 228.066406 142.128906 227.726562 C 141.105469 226.703125 139.0625 226.359375 137.695312 227.382812 C 137.355469 227.726562 137.015625 227.726562 136.332031 227.726562 C 135.992188 227.726562 135.308594 227.382812 135.308594 227.042969 C 133.261719 224.316406 128.488281 224.65625 126.785156 227.382812 C 126.441406 228.066406 125.761719 228.40625 125.421875 228.40625 Z M 125.421875 228.40625"/>
  <path fill="#000000" fill-opacity="1" fill-rule="nonzero" d="M 257.394531 245.457031 L 117.578125 245.457031 C 116.554688 245.457031 115.871094 244.777344 115.871094 243.753906 C 115.871094 237.273438 110.414062 231.816406 103.9375 231.816406 C 102.914062 231.816406 102.230469 231.136719 102.230469 230.113281 L 102.230469 144.859375 C 102.230469 143.835938 102.914062 143.152344 103.9375 143.152344 C 110.414062 143.152344 115.871094 137.695312 115.871094 131.21875 C 115.871094 130.195312 116.554688 129.511719 117.578125 129.511719 L 257.394531 129.511719 C 258.417969 129.511719 259.097656 130.195312 259.097656 131.21875 C 259.097656 137.695312 264.554688 143.152344 271.035156 143.152344 C 272.058594 143.152344 272.738281 143.835938 272.738281 144.859375 L 272.738281 230.113281 C 272.738281 231.136719 272.058594 231.816406 271.035156 231.816406 C 264.554688 231.816406 259.097656 237.273438 259.097656 243.753906 C 259.097656 244.777344 258.417969 245.457031 257.394531 245.457031 Z M 119.28125 242.046875 L 255.6875 242.046875 C 256.371094 234.886719 262.167969 229.429688 269.328125 228.40625 L 269.328125 146.5625 C 262.167969 145.882812 256.710938 140.082031 255.6875 132.921875 L 119.28125 132.921875 C 118.601562 140.082031 112.800781 145.539062 105.640625 146.5625 L 105.640625 228.40625 C 112.800781 229.429688 118.257812 234.886719 119.28125 242.046875 Z M 119.28125 242.046875"/>
  <path fill="#000000" fill-opacity="1" fill-rule="nonzero" d="M 190.894531 234.546875 C 190.214844 234.546875 189.53125 234.546875 188.847656 234.203125 L 188.507812 233.863281 C 188.167969 233.523438 187.484375 233.523438 187.144531 233.863281 L 186.804688 234.203125 C 185.4375 234.886719 184.074219 234.886719 182.710938 234.203125 C 181.347656 233.523438 180.324219 232.5 179.984375 231.136719 L 178.277344 229.429688 C 176.914062 229.089844 175.890625 228.066406 175.207031 226.703125 C 174.527344 225.335938 174.527344 223.972656 175.207031 222.609375 L 175.550781 222.269531 C 175.890625 221.925781 175.890625 221.246094 175.550781 220.90625 L 175.207031 220.5625 C 174.527344 219.199219 174.527344 217.835938 175.207031 216.472656 C 175.890625 215.105469 176.914062 214.085938 178.277344 213.742188 L 179.640625 212.378906 L 179.984375 212.039062 C 180.324219 210.675781 181.347656 209.652344 182.710938 208.96875 C 184.074219 208.285156 185.4375 208.285156 186.804688 208.96875 L 187.144531 209.308594 C 187.484375 209.652344 188.167969 209.652344 188.507812 209.308594 L 188.847656 208.96875 C 190.214844 208.285156 191.578125 208.285156 192.941406 208.96875 C 194.304688 209.652344 195.328125 210.675781 195.667969 212.039062 L 196.011719 212.378906 L 197.375 213.742188 C 198.738281 214.085938 199.761719 215.105469 200.445312 216.472656 C 201.125 217.835938 201.125 219.199219 200.445312 220.5625 L 200.101562 220.90625 C 199.761719 221.246094 199.761719 221.925781 200.101562 222.269531 L 200.445312 222.609375 C 201.125 223.972656 201.125 225.335938 200.445312 226.703125 C 199.761719 228.066406 198.738281 229.089844 197.375 229.429688 L 195.667969 231.136719 C 195.328125 232.5 194.304688 233.523438 192.941406 234.203125 C 192.257812 234.546875 191.578125 234.546875 190.894531 234.546875 Z M 187.484375 230.453125 C 188.167969 230.453125 188.847656 230.453125 189.53125 230.792969 L 189.871094 231.136719 C 190.214844 231.476562 190.894531 231.476562 191.234375 231.136719 L 192.601562 229.769531 C 193.28125 228.40625 194.304688 227.382812 195.667969 226.703125 L 196.011719 226.359375 C 196.351562 226.359375 196.691406 226.019531 197.035156 225.335938 C 197.375 224.996094 197.375 224.316406 197.035156 223.972656 L 196.691406 223.632812 C 196.011719 222.269531 196.011719 220.90625 196.691406 219.539062 L 197.035156 219.199219 C 197.375 218.859375 197.375 218.175781 197.035156 217.835938 L 196.011719 216.8125 L 195.667969 216.472656 C 194.304688 215.789062 193.28125 214.765625 192.601562 213.402344 L 192.257812 213.0625 C 192.257812 212.71875 191.917969 212.378906 191.234375 212.039062 C 190.894531 211.695312 190.214844 211.695312 189.871094 212.039062 L 189.53125 212.378906 C 188.167969 213.0625 186.804688 213.0625 185.4375 212.378906 L 185.097656 212.039062 C 184.757812 211.695312 184.074219 211.695312 183.734375 212.039062 L 182.371094 213.402344 C 181.6875 214.765625 180.664062 215.789062 179.300781 216.472656 L 178.960938 216.8125 C 178.617188 216.8125 178.277344 217.152344 177.9375 217.835938 C 177.59375 218.175781 177.59375 218.859375 177.9375 219.199219 L 178.277344 219.539062 C 178.960938 220.90625 178.960938 222.269531 178.277344 223.632812 L 177.9375 223.972656 C 177.59375 224.316406 177.59375 224.996094 177.9375 225.335938 L 178.960938 226.359375 L 179.300781 226.703125 C 180.664062 227.382812 181.6875 228.40625 182.371094 229.769531 L 182.710938 230.113281 C 182.710938 230.453125 183.050781 230.792969 183.734375 231.136719 C 184.074219 231.476562 184.757812 231.476562 185.097656 231.136719 L 185.4375 230.792969 C 186.121094 230.453125 186.804688 230.453125 187.484375 230.453125 Z M 188.847656 210.675781 Z M 188.847656 210.675781"/>
</svg>