<svg width="130" height="130" viewBox="0 0 130 130" fill="none" xmlns="http://www.w3.org/2000/svg">
<path fill-rule="evenodd" clip-rule="evenodd" d="M64.968 39.1067C64.968 39.1067 64.8168 39.0059 63.8328 38.3129C60.153 35.3548 55.5744 33.7402 50.853 33.7354H39.6873C39.2211 33.7354 38.774 33.9207 38.4443 34.2503C38.1146 34.5799 37.9294 35.0269 37.9294 35.4932V41.4135H33.2255C32.8735 41.4107 32.5244 41.478 32.1986 41.6112C31.8728 41.7445 31.5767 41.9408 31.3274 42.1894C31.0783 42.438 30.8809 42.7336 30.7468 43.0591C30.6128 43.3845 30.5447 43.7337 30.5465 44.0856V87.1874C30.5465 87.8923 30.8266 88.5683 31.325 89.0668C31.8235 89.5653 32.4996 89.8454 33.2044 89.8454H50.6421C52.1162 89.8489 53.5728 90.164 54.9166 90.77C56.2604 91.3756 57.4611 92.2587 58.4398 93.3611L58.6859 93.6141C58.829 93.7621 58.9773 93.9046 59.1302 94.0419C59.3173 94.2098 59.5116 94.3698 59.7125 94.5212C59.7565 94.5542 59.8011 94.5864 59.8458 94.618C59.9441 94.6877 60.0425 94.7536 60.1344 94.8165C60.4566 95.0303 60.7924 95.223 61.1398 95.3929L61.3156 95.4774C61.5054 95.5687 61.6883 95.6463 61.8711 95.7163C61.9718 95.7544 62.0735 95.7901 62.1758 95.8238C62.3235 95.8725 62.4728 95.9165 62.6234 95.9556C62.7052 95.9793 62.8002 96.0047 62.906 96.0311C63.0186 96.059 63.1433 96.0881 63.2773 96.1173C63.658 96.1922 64.0432 96.2416 64.4305 96.2649H64.9719C64.9813 96.2649 64.9906 96.2649 65 96.2649V92.7421H64.6977C64.4615 92.7277 64.2266 92.6971 63.9946 92.6508C63.8469 92.6508 63.7203 92.5876 63.5868 92.5522C63.4366 92.5138 63.2888 92.4667 63.1438 92.4118L62.8555 92.2851L62.7079 92.2147C62.6503 92.1869 62.5932 92.1581 62.5367 92.1282C62.3881 92.0493 62.2435 91.9631 62.1031 91.8704L61.85 91.6946C61.6248 91.5236 61.4133 91.3358 61.2171 91.1319L61.0836 90.9915C59.7733 89.5258 58.1685 88.353 56.3742 87.5496C54.5798 86.7466 52.6361 86.3308 50.6702 86.3298H34.0622V44.9291H37.8943V80.3672C37.8943 80.8335 38.0795 81.2805 38.4091 81.6101C38.7388 81.9397 39.1859 82.1251 39.6521 82.1251H50.832C53.2608 82.1251 55.6623 82.6387 57.8786 83.6323C60.0951 84.6262 62.0762 86.0771 63.6922 87.8905C63.857 88.0753 64.0592 88.2232 64.2851 88.3242C64.5101 88.4251 64.7536 88.478 65 88.478L64.968 39.1067ZM50.853 37.251H41.4311V78.6235H50.853C55.3186 78.6273 59.6637 80.0723 63.2422 82.7437V42.5245C61.637 40.8587 59.7128 39.5334 57.5841 38.6274C55.4556 37.7214 53.1664 37.2531 50.853 37.251Z" fill="black"/>
<path fill-rule="evenodd" clip-rule="evenodd" d="M64.968 39.1067C64.968 39.1067 64.7538 39.4469 66.1674 38.3127C69.8472 35.3547 74.4258 33.74 79.1472 33.7354H90.3129C90.7791 33.7354 91.2262 33.9206 91.5559 34.2502C91.8855 34.5799 92.0707 35.027 92.0707 35.4932V41.4135H96.7747C97.1267 41.4107 97.4757 41.4779 97.8015 41.6111C98.1274 41.7443 98.4235 41.9409 98.6727 42.1895C98.9219 42.438 99.1193 42.7336 99.2534 43.0591C99.3874 43.3846 99.4555 43.7334 99.4536 44.0854V87.1874C99.4536 87.8923 99.1736 88.5683 98.6751 89.0668C98.1767 89.5652 97.5007 89.8452 96.7958 89.8452H79.3581C77.884 89.8489 76.4274 90.1639 75.0836 90.7698C73.7398 91.3757 72.5391 92.2586 71.5604 93.3609L71.3143 93.614C70.9961 93.9425 70.6529 94.2458 70.2877 94.5211C70.172 94.6079 70.0515 94.6899 69.938 94.7672C69.9136 94.7838 69.8895 94.8002 69.8658 94.8164C69.5436 95.0303 69.2077 95.2229 68.8604 95.3929L68.6846 95.4773C68.4947 95.5687 68.3119 95.6461 68.1291 95.7164C67.8827 95.8094 67.6316 95.8892 67.3768 95.9554C67.208 96.0047 66.983 96.0609 66.7228 96.1172C66.3422 96.1921 65.957 96.2414 65.5697 96.2648H65.0283C65.0189 96.2648 65.0094 96.265 65 96.2649V92.7421L65.3025 92.7421C65.5387 92.7276 65.7736 92.6971 66.0056 92.6507C66.1087 92.6507 66.2014 92.6199 66.2934 92.5894C66.3333 92.5761 66.3731 92.5629 66.4135 92.5523C66.5636 92.5135 66.7114 92.4666 66.8564 92.4117L67.1447 92.2851L67.2924 92.2148C67.5013 92.1134 67.7033 91.9983 67.8971 91.8703L68.1502 91.6945C68.3754 91.5236 68.587 91.3356 68.783 91.132L68.9166 90.9913C70.2269 89.5257 71.8317 88.3529 73.626 87.5497C75.4204 86.7464 77.364 86.3306 79.33 86.3296H95.9379V44.9292H92.1059V80.367C92.1059 80.8332 91.9207 81.2803 91.591 81.61C91.2614 81.9397 90.8143 82.1249 90.3481 82.1249H79.1683C76.7393 82.1249 74.3379 82.6387 72.1215 83.6324C69.9052 84.626 67.924 86.0772 66.308 87.8905C66.1431 88.0752 65.941 88.223 65.7151 88.3242C65.4901 88.425 65.2464 88.4775 65 88.478L64.968 39.1067ZM79.1472 37.251H88.5691V78.6233H79.1472C74.6816 78.6273 70.3365 80.0723 66.758 82.7436V42.5245C68.3632 40.8587 70.2875 39.5332 72.416 38.6272C74.5446 37.7211 76.8338 37.2531 79.1472 37.251Z" fill="black"/>
</svg>
