<svg width="130" height="130" viewBox="0 0 130 130" fill="none" xmlns="http://www.w3.org/2000/svg">
<path fill-rule="evenodd" clip-rule="evenodd" d="M74.8795 40V40.0422C74.8795 40.8031 75.1048 51.8068 86.6501 52.4935C86.6501 62.7303 86.6548 52.4935 86.6548 60.9944C85.7923 61.0444 79.0569 60.5599 74.8664 56.8236L74.8539 73.3743C74.9574 80.8689 70.7854 88.2183 62.9752 89.6998C60.7863 90.1159 58.8139 90.1611 55.5086 89.4382C36.451 83.7384 42.7845 55.4765 61.9176 58.5012C61.9176 67.6252 61.923 58.4982 61.923 67.6252C54.0165 66.4624 51.3746 73.0349 53.4749 77.7455C55.3867 82.0316 63.2564 82.9614 66.0016 76.9132C66.3127 75.7294 66.4681 74.3802 66.4677 72.8655V40H74.8795Z" fill="black"/>
</svg>
