<svg xmlns="http://www.w3.org/2000/svg" width="130" height="130" viewBox="0 0 130 130">
    <path fill="#000" fill-rule="nonzero" d="M88.783 79.088c.668.749 2.949 3.192 2.922 3.163 1.165 1.27 1.876 2.128 2.393 2.972 2.364 3.853-.156 6.806-4.814 6.777-5.204-.033-10.208-1.63-14.96-4.741A34.168 34.168 0 0 1 63.48 89C47.31 89 34 77.943 34 64s13.31-25 29.48-25c16.171 0 29.48 11.057 29.48 25 0 5.11-1.807 9.969-5.08 14.052.282.333.582.677.903 1.036zm-4.47 4c-1.08-1.21-1.979-2.3-2.769-3.393l-1.489-2.058 1.784-1.809c3.314-3.358 5.125-7.491 5.125-11.828 0-10.357-10.403-19-23.484-19-13.08 0-23.484 8.643-23.484 19S50.4 83 63.48 83c3.577 0 7.033-.65 10.18-1.88l1.52-.595 1.325.955c3.378 2.437 6.81 3.875 10.333 4.347-.7-.752-2.015-2.168-2.526-2.74zM49.49 68.5a4.498 4.498 0 0 1-4.497-4.5c0-2.485 2.013-4.5 4.497-4.5a4.498 4.498 0 0 1 4.496 4.5c0 2.485-2.013 4.5-4.496 4.5zm13.99 0a4.498 4.498 0 0 1-4.497-4.5c0-2.485 2.013-4.5 4.497-4.5a4.498 4.498 0 0 1 4.497 4.5c0 2.485-2.013 4.5-4.497 4.5zm13.99 0a4.498 4.498 0 0 1-4.496-4.5c0-2.485 2.013-4.5 4.497-4.5a4.498 4.498 0 0 1 4.497 4.5c0 2.485-2.014 4.5-4.497 4.5z"/>
</svg>
